<svg id="Untitled-1" xmlns="http://www.w3.org/2000/svg" viewBox="0 0 30.312 30.312">
  <defs>
    <style>
      .cls-1 {
        fill: #d81671;
        fill-rule: evenodd;
      }

      .cls-2 {
        fill: #0bb8e2;
      }
    </style>
  </defs>
  <g id="_1784589947408" transform="translate(6.703 5.219)">
    <g id="Group_37" data-name="Group 37">
      <g id="Group_36" data-name="Group 36">
        <path id="Path_47" data-name="Path 47" class="cls-1" d="M74.435,44.449h.131a3.8,3.8,0,0,0,2.9-1.255c1.584-1.787,1.321-4.849,1.292-5.142a4.2,4.2,0,0,0-2-3.733,4.582,4.582,0,0,0-2.215-.58h-.07a4.6,4.6,0,0,0-2.215.563,4.208,4.208,0,0,0-2.02,3.75c-.029.292-.292,3.355,1.292,5.142a3.783,3.783,0,0,0,2.9,1.255Zm-3.092-6.293c0-.012,0-.025,0-.032.136-2.951,2.231-3.269,3.128-3.269h.049c1.112.025,3,.478,3.128,3.269a.069.069,0,0,0,0,.032c0,.028.292,2.828-1.016,4.3a2.7,2.7,0,0,1-2.121.882h-.04a2.7,2.7,0,0,1-2.116-.882c-1.3-1.465-1.024-4.276-1.021-4.3Z" transform="translate(-66.053 -33.74)"/>
        <path id="Path_48" data-name="Path 48" class="cls-1" d="M60.24,107.835v-.012c0-.032,0-.065,0-.1-.025-.815-.077-2.721-1.864-3.33l-.042-.012a11.891,11.891,0,0,1-3.415-1.555.555.555,0,1,0-.637.91,12.789,12.789,0,0,0,3.757,1.715c.959.342,1.066,1.366,1.094,2.3a.752.752,0,0,0,0,.1,7.354,7.354,0,0,1-.087,1.272,15.139,15.139,0,0,1-7.256,1.688,15.228,15.228,0,0,1-7.259-1.692,7.061,7.061,0,0,1-.087-1.272c0-.032,0-.067,0-.1.028-.937.136-1.963,1.1-2.3a12.925,12.925,0,0,0,3.757-1.715.556.556,0,1,0-.639-.91,11.725,11.725,0,0,1-3.415,1.556.225.225,0,0,0-.042.012c-1.785.613-1.839,2.518-1.864,3.329a.753.753,0,0,1,0,.1v.012a6.351,6.351,0,0,0,.21,1.864.535.535,0,0,0,.215.26,15.565,15.565,0,0,0,8.033,1.966,15.634,15.634,0,0,0,8.034-1.966.558.558,0,0,0,.213-.26A6.608,6.608,0,0,0,60.24,107.835Z" transform="translate(-43.335 -92.047)"/>
      </g>
    </g>
  </g>
  <path id="Path_49" data-name="Path 49" class="cls-2" d="M15.156,0A15.157,15.157,0,1,1,4.439,4.439,15.107,15.107,0,0,1,15.156,0Zm9.906,5.25a14.008,14.008,0,1,0,4.1,9.906,13.964,13.964,0,0,0-4.1-9.906Z"/>
</svg>
