<svg xmlns="http://www.w3.org/2000/svg" width="60" height="70" viewBox="0 0 60 70"><path d="M7.1,64.152l3.028,2.019a8.995,8.995,0,0,0,5,1.514,4.214,4.214,0,0,0,3.579-2,10.5,10.5,0,0,0,12.337,0,4.215,4.215,0,0,0,3.579,2,8.995,8.995,0,0,0,5-1.515l3.024-2.018a4.683,4.683,0,0,0-2.124-8.562,6.757,6.757,0,0,0,.91-3.362,14.611,14.611,0,0,0-6.65-12.215,13.249,13.249,0,1,0-19.822,0,14.609,14.609,0,0,0-6.65,12.215,6.757,6.757,0,0,0,.905,3.361A4.683,4.683,0,0,0,7.1,64.152Zm17.775,1.325a8.376,8.376,0,0,1-5.209-1.826l-.311-.255a4.2,4.2,0,0,0-1.233-2.926L15.655,58c-.091-.091-.189-.17-.283-.256H28.185V55.541H16.04V53.332H33.705v2.208H30.393v2.208h3.986c-.094.086-.192.166-.283.256L31.632,60.47A4.185,4.185,0,0,0,30.4,63.4l-.318.254A8.371,8.371,0,0,1,24.873,65.477Zm17.665-5.237a2.483,2.483,0,0,1-1.11,2.073L38.4,64.333a6.792,6.792,0,0,1-3.779,1.144,2.018,2.018,0,0,1-1.428-3.446l2.464-2.465a6.166,6.166,0,0,1,4.389-1.817,2.5,2.5,0,0,1,2.492,2.492ZM24.3,20.24l.943,1.414a4.344,4.344,0,0,1,.733,2.421.552.552,0,1,1-1.1,0V22.419H22.665v1.656a2.76,2.76,0,1,0,5.52,0,6.555,6.555,0,0,0-1.1-3.643,11.094,11.094,0,1,1-2.783-.194ZM16.607,41.588a13.188,13.188,0,0,0,16.533,0,12.394,12.394,0,0,1,6.086,10.641,4.576,4.576,0,0,1-2.133,3.852,8.342,8.342,0,0,0-1.179.552v-4.4a1.1,1.1,0,0,0-1.1-1.1V48.916H32.6v2.208H17.144V48.916H14.936v2.208a1.1,1.1,0,0,0-1.1,1.1v4.4a8.34,8.34,0,0,0-1.179-.552,4.576,4.576,0,0,1-2.133-3.849A12.392,12.392,0,0,1,16.607,41.588ZM9.7,57.749a6.166,6.166,0,0,1,4.389,1.817l2.465,2.465a2.019,2.019,0,0,1-1.429,3.446,6.792,6.792,0,0,1-3.779-1.144L8.317,62.314A2.492,2.492,0,0,1,9.7,57.749Z" transform="translate(-5.002 2.314)" fill="#273133"/><path d="M57.5,2.1a1.1,1.1,0,0,0-1.1-1.1H36.52a1.1,1.1,0,0,0-1.1,1.1A3.312,3.312,0,0,1,32.1,5.416,1.1,1.1,0,0,0,31,6.52v4.5A23.638,23.638,0,0,0,46.06,32.945a1.114,1.114,0,0,0,.793,0,23.638,23.638,0,0,0,15.06-21.929V6.52a1.1,1.1,0,0,0-1.1-1.1A3.312,3.312,0,0,1,57.5,2.1Zm2.208,8.912a21.419,21.419,0,0,1-13.249,19.71,21.419,21.419,0,0,1-13.249-19.71v-3.5a5.535,5.535,0,0,0,4.306-4.306H55.4a5.535,5.535,0,0,0,4.306,4.306Z" transform="translate(-1.913 -1)" fill="#273133"/><path d="M53.851,7.372,51.974,9.487A9.078,9.078,0,0,0,46.438,7,8.711,8.711,0,0,0,39.8,9.293a8.9,8.9,0,1,0,13.578,1.944L55.5,8.84Zm-1.382,8.463a6.634,6.634,0,1,1-1.962-4.7l-4.71,5.3L43.313,13.95l-1.561,1.561,3.312,3.312a1.1,1.1,0,0,0,.781.323h.032a1.1,1.1,0,0,0,.794-.37l5.146-5.791A6.575,6.575,0,0,1,52.469,15.835Z" transform="translate(-1.301 -0.378)" fill="#d81671"/><path d="M229.728,230.683a3.047,3.047,0,0,0,2.159-.891,1.3,1.3,0,0,0-1.845-1.842.445.445,0,0,1-.628,0,1.3,1.3,0,0,0-1.845,1.842A3.046,3.046,0,0,0,229.728,230.683Z" transform="translate(-209.279 -189.604)" fill="#d81671"/></svg>