<svg width="56" height="56" viewBox="0 0 56 56" fill="none" xmlns="http://www.w3.org/2000/svg">
<path d="M52.2759 17.5848C49.7612 16.911 47.7804 14.9303 47.1065 12.4154C46.8446 11.4567 45.4811 11.4572 45.2197 12.4154C45.0934 12.887 44.9211 13.3396 44.708 13.7686C42.4012 11.7666 39.5164 10.7148 36.2987 10.7148C34.3602 10.7148 32.2695 11.4558 30.4247 12.1096C29.5928 12.4045 28.8017 12.6849 28.0802 12.882C24.8332 11.4412 20.4652 10.0887 16.7708 11.028C16.244 11.1439 15.9109 11.6649 16.0269 12.1918C16.1429 12.7186 16.6639 13.0519 17.1907 12.9357C20.7599 12.2286 23.304 13.0103 27.5995 14.8047C29.7807 15.7761 31.9999 16.181 34.2712 16.5422C34.792 16.6289 35.3069 16.2666 35.3892 15.7311C35.4738 15.1983 35.1107 14.6978 34.578 14.6131C33.3634 14.4199 32.2157 14.2236 31.1026 13.9418C32.8739 13.314 34.7036 12.6682 36.2985 12.6682C39.114 12.6682 41.6238 13.6096 43.6014 15.3988C42.6681 16.44 41.4408 17.2123 40.0502 17.5849C39.0915 17.8467 39.092 19.2102 40.0502 19.4717C42.5649 20.1455 44.5456 22.1263 45.2195 24.641C45.4813 25.5997 46.8447 25.5992 47.1063 24.641C47.203 24.2802 47.3266 23.9305 47.4748 23.594C47.8418 27.3327 46.5288 31.0492 43.8059 33.654C40.6495 36.705 40.3986 38.0218 40.0905 40.9668C40.0677 41.1851 40.0437 41.4141 40.0169 41.6555L39.2398 46.7032C38.6968 50.2301 37.5251 51.735 35.3219 51.735C34.1216 51.735 33.4488 51.1103 33.2045 49.7691L31.9257 42.7485C31.2952 39.2866 29.1934 38.7697 27.9966 38.7697C26.7999 38.7697 24.6982 39.2866 24.0676 42.7484L22.7888 49.769C22.5445 51.1102 21.8716 51.7349 20.6715 51.7349C18.4681 51.7349 17.2964 50.23 16.7535 46.7031L15.9765 41.6553C15.9497 41.4138 15.9257 41.1848 15.9028 40.9664C15.5947 38.0216 15.3438 36.7049 12.1875 33.654C7.75162 29.603 7.35744 22.138 10.6585 17.3938C10.962 16.948 10.8468 16.3404 10.4009 16.0367C9.95528 15.7332 9.3476 15.8484 9.04386 16.2943C5.20915 21.8006 5.714 30.3717 10.8303 35.0584C13.6012 37.7369 13.6916 38.6019 13.9604 41.1697C13.9842 41.3981 14.0093 41.6381 14.0376 41.8914C14.039 41.905 14.0408 41.9186 14.0429 41.9322L14.8231 47.0003C15.0777 48.6545 15.8528 53.6882 20.6718 53.6882C22.8255 53.6882 24.2976 52.3873 24.7107 50.119L25.9895 43.0984C26.4222 40.723 27.6073 40.723 27.9968 40.723C28.3862 40.723 29.5715 40.723 30.0042 43.0984L31.283 50.119C31.6961 52.3873 33.1683 53.6882 35.322 53.6882C40.1411 53.6882 40.9158 48.6544 41.1706 47.0003L41.9508 41.9323C41.9529 41.9187 41.9547 41.9051 41.9562 41.8914C41.9843 41.6382 42.0094 41.3985 42.0333 41.1701C42.302 38.6022 42.3926 37.7371 45.1637 35.0585C48.8709 31.5628 50.25 26.1859 49.0886 21.2796C49.9677 20.4294 51.0592 19.7975 52.2758 19.4716C53.2347 19.2099 53.2341 17.8464 52.2759 17.5848ZM46.1631 21.8743C45.3557 20.4909 44.2004 19.3356 42.8171 18.5282C44.2004 17.7207 45.3557 16.5654 46.1631 15.1821C46.9706 16.5654 48.1259 17.7207 49.5092 18.5282C48.1259 19.3357 46.9706 20.491 46.1631 21.8743Z" fill="#273133"/>
<path d="M16.4806 32.851C18.5202 33.3975 20.1268 35.004 20.6733 37.0436C20.935 38.0023 22.2987 38.0018 22.56 37.0436C23.1066 35.004 24.7131 33.3975 26.7528 32.851C27.7115 32.5892 27.711 31.2257 26.7528 30.9642C24.7131 30.4177 23.1066 28.8112 22.56 26.7716C22.2984 25.8129 20.9347 25.8134 20.6733 26.7716C20.1268 28.8112 18.5202 30.4177 16.4806 30.9642C15.5219 31.226 15.5223 32.5894 16.4806 32.851ZM21.6167 29.4328C22.2462 30.431 23.0933 31.278 24.0915 31.9076C23.0933 32.5372 22.2462 33.3842 21.6167 34.3824C20.9871 33.3842 20.14 32.5372 19.1419 31.9076C20.14 31.2779 20.9871 30.431 21.6167 29.4328Z" fill="#D81671"/>
<path d="M8.1157 13.926C8.55778 13.926 8.94477 13.6291 9.05915 13.202C9.50924 11.5221 10.8325 10.1988 12.5125 9.7487C13.4712 9.48683 13.4707 8.12327 12.5124 7.86179C10.8326 7.41161 9.50934 6.08839 9.05915 4.40836C8.79738 3.44957 7.43382 3.45006 7.17224 4.40836C6.72205 6.08839 5.39874 7.41161 3.71891 7.8617C2.76012 8.12347 2.76061 9.48712 3.71891 9.7486C5.39874 10.1988 6.72205 11.522 7.17224 13.2019C7.28672 13.6291 7.67371 13.926 8.1157 13.926ZM8.1157 6.97519C8.60408 7.69506 9.22578 8.31687 9.94566 8.80525C9.22578 9.29363 8.60408 9.91543 8.1157 10.6353C7.62722 9.91543 7.00551 9.29363 6.28564 8.80525C7.00551 8.31677 7.62722 7.69506 8.1157 6.97519Z" fill="#D81671"/>
<path d="M12.9451 12.748C12.4058 12.748 11.9688 13.1853 11.9688 13.7248C12.0203 15.0203 13.8714 15.0203 13.9227 13.7248C13.9227 13.1853 13.4853 12.748 12.9459 12.748H12.9451Z" fill="#D81671"/>
</svg>
