<?xml version="1.0" encoding="UTF-8"?>
<!DOCTYPE svg PUBLIC "-//W3C//DTD SVG 1.1//EN" "http://www.w3.org/Graphics/SVG/1.1/DTD/svg11.dtd">
<!-- Creator: CorelDRAW 2017 -->
<svg xmlns="http://www.w3.org/2000/svg" xml:space="preserve" width="300px" height="300px" version="1.1" style="shape-rendering:geometricPrecision; text-rendering:geometricPrecision; image-rendering:optimizeQuality; fill-rule:evenodd; clip-rule:evenodd"
viewBox="0 0 54.96 54.96"
 xmlns:xlink="http://www.w3.org/1999/xlink">
 <defs>
  <style type="text/css">
   <![CDATA[
    .fil0 {fill:none}
    .fil1 {fill:#273133}
    .fil2 {fill:#D71671}
    .fil3 {fill:#D71671;fill-rule:nonzero}
   ]]>
  </style>
 </defs>
 <g id="Layer_x0020_1">
  <metadata id="CorelCorpID_0Corel-Layer"/>
  <g id="_1636071669648">
   <rect class="fil0" width="54.96" height="54.96"/>
   <g>
    <g>
     <path class="fil1" d="M27.97 14.64c-2,0 -3.62,-1.63 -3.62,-3.62 0,-2 1.62,-3.62 3.62,-3.62 1.99,0 3.61,1.62 3.61,3.62 0,1.99 -1.62,3.62 -3.61,3.62zm0 -8.72c-2.81,0 -5.1,2.29 -5.1,5.1 0,2.81 2.29,5.1 5.1,5.1 2.81,0 5.09,-2.29 5.09,-5.1 0,-2.81 -2.28,-5.1 -5.09,-5.1z"/>
     <path class="fil1" d="M30.16 26.4l0 -5.21c0,-2.7 -2.86,-4.47 -5.28,-3.26l-5.81 2.9c-1.24,0.62 -2,1.87 -2,3.26l0 2.37 0 0.76 0 1.55 0 2.13 0 1.91c0,2 1.62,3.64 3.63,3.64 2.01,0 3.65,-1.63 3.65,-3.64l0 -1.98 0 -2.78 0 -1.49 0 -0.34 0 -0.33c0,-0.41 -0.33,-0.74 -0.74,-0.74 -0.41,0 -0.73,0.33 -0.73,0.74l0 6.92c0,1.19 -0.98,2.16 -2.18,2.16 -1.19,0 -2.16,-0.97 -2.16,-2.16l0 -8.72c0,-0.82 0.46,-1.57 1.19,-1.94l5.81 -2.9c0.58,-0.29 1.26,-0.3 1.85,-0.04 0.78,0.34 1.3,1.12 1.3,1.98l0 5.21 0 0c0,0.4 0.33,0.73 0.73,0.73 0.41,0 0.73,-0.33 0.73,-0.73l0.01 0z"/>
     <path class="fil1" d="M44.57 44.51l-2.9 -11.62c-0.41,-1.63 -1.86,-2.75 -3.54,-2.75l-4.59 0 0 0c-0.4,0 -0.73,0.33 -0.73,0.73 0,0.41 0.33,0.74 0.73,0.74l0 0 4.59 0c1,0 1.86,0.67 2.1,1.64l2.91 11.62c0.29,1.15 -0.42,2.34 -1.58,2.62 -1.15,0.29 -2.33,-0.41 -2.62,-1.57l-2.36 -9.42c-0.08,-0.33 -0.38,-0.55 -0.72,-0.55l-1.4 0 0 0.01c-0.39,0.02 -0.7,0.34 -0.7,0.73 0,0.41 0.33,0.73 0.73,0.73 0.03,0 0.06,0 0.08,0l0.72 0 2.21 8.86c0.49,1.95 2.47,3.14 4.42,2.65 1.94,-0.49 3.14,-2.48 2.65,-4.42z"/>
    </g>
    <g>
     <path class="fil2" d="M26.42 28.94c3.16,1.73 5.16,5.05 5.16,8.71 0,5.46 -4.44,9.91 -9.91,9.91 -5.46,0 -9.91,-4.45 -9.91,-9.91 0,-3.07 1.39,-5.92 3.78,-7.79l0 -0.01c0.33,-0.09 0.57,-0.39 0.57,-0.74 0,-0.42 -0.34,-0.77 -0.77,-0.77 -0.21,0 -0.4,0.09 -0.54,0.23l0 -0.01c-0.96,0.73 -1.8,1.6 -2.49,2.59 -1.33,1.92 -2.03,4.16 -2.03,6.5 0,6.28 5.11,11.39 11.39,11.39 4.93,0 9.16,-3.16 10.74,-7.58 0.41,-1.21 0.63,-2.5 0.63,-3.81 0,-1.52 -0.29,-3 -0.84,-4.36 -0.09,-0.22 -0.19,-0.44 -0.3,-0.65l-0.26 -0.55c-1.08,-1.99 -2.59,-3.3 -4.5,-4.44 -0.14,-0.13 -0.33,-0.21 -0.53,-0.21 -0.43,0 -0.77,0.34 -0.77,0.76 0,0.36 0.25,0.66 0.58,0.74z"/>
     <path class="fil3" d="M26.34 34.15c-0.25,-0.34 -0.18,-0.81 0.15,-1.06 0.34,-0.26 0.82,-0.19 1.07,0.15 0.47,0.63 0.84,1.34 1.09,2.09 0.25,0.75 0.38,1.53 0.38,2.32 0,2.04 -0.82,3.88 -2.16,5.22 -1.33,1.33 -3.18,2.16 -5.21,2.16 -2.04,0 -3.88,-0.83 -5.21,-2.16 -1.34,-1.34 -2.16,-3.18 -2.16,-5.22 0,-0.28 0.02,-0.57 0.05,-0.86 0.03,-0.28 0.08,-0.56 0.15,-0.86 0.1,-0.4 0.51,-0.66 0.92,-0.56 0.41,0.1 0.66,0.51 0.56,0.92 -0.05,0.21 -0.09,0.43 -0.12,0.68 -0.02,0.22 -0.03,0.45 -0.03,0.68 0,1.62 0.65,3.08 1.71,4.14 1.05,1.05 2.52,1.71 4.13,1.71 1.61,0 3.08,-0.66 4.13,-1.71 1.06,-1.06 1.71,-2.52 1.71,-4.14 0,-0.64 -0.1,-1.26 -0.29,-1.84 -0.2,-0.6 -0.49,-1.16 -0.87,-1.66z"/>
    </g>
   </g>
  </g>
 </g>
</svg>
