<svg xmlns="http://www.w3.org/2000/svg" width="75.921" height="70.698" viewBox="0 0 75.921 70.698"><path d="M4.767,9.825A4.841,4.841,0,0,1,0,4.912,4.841,4.841,0,0,1,4.767,0,4.841,4.841,0,0,1,9.534,4.912,4.847,4.847,0,0,1,4.767,9.825Zm0-7.689A2.736,2.736,0,0,0,2.073,4.912,2.736,2.736,0,0,0,4.767,7.689,2.736,2.736,0,0,0,7.461,4.912,2.74,2.74,0,0,0,4.767,2.136Z" transform="translate(31.094 24.405)" fill="#d81771"/><path d="M1.808.32a1.037,1.037,0,0,0-1.5,0,1.115,1.115,0,0,0,0,1.544,1.037,1.037,0,0,0,1.5,0,1.115,1.115,0,0,0,0-1.544Z" transform="translate(31.624 57.154)" fill="#d81771"/><path d="M7.8,9.993H.6a.724.724,0,0,1,0-1.427h.6V.714A.666.666,0,0,1,1.8,0H6.6a.666.666,0,0,1,.6.714V8.565h.6a.724.724,0,0,1,0,1.427ZM2.4,5.71V8.566H6V5.71Zm0-4.283V4.283H6V1.427Z" transform="translate(14.745 50.604)"/><g transform="translate(0)"><path d="M67.263,70.7H1.34a1.382,1.382,0,0,1,0-2.762h5.9V36.731H1.34A1.34,1.34,0,0,1,.1,35.879a1.411,1.411,0,0,1,.291-1.505L15.323,18.987a1.312,1.312,0,0,1,1.9,0,1.411,1.411,0,0,1,0,1.953L4.575,33.97h5.3l23.478-24.2a1.312,1.312,0,0,1,1.9,0l23.478,24.2h5.3L34.3,3.335,22.654,15.34a1.312,1.312,0,0,1-1.9,0,1.411,1.411,0,0,1,0-1.953L33.354.406a1.312,1.312,0,0,1,1.893,0L68.209,34.374a1.411,1.411,0,0,1,.29,1.5,1.34,1.34,0,0,1-1.238.852H61.368V47.087a1.341,1.341,0,1,1-2.68,0V36.731h-.517a1.311,1.311,0,0,1-.947-.4L34.3,12.7,11.379,36.325a1.313,1.313,0,0,1-.947.4H9.915V67.937H26V41.7a1.365,1.365,0,0,1,1.338-1.385H41.27A1.365,1.365,0,0,1,42.609,41.7V67.94H58.688V53.3a1.341,1.341,0,1,1,2.68,0V67.939h5.9a1.381,1.381,0,0,1,0,2.762ZM28.674,43.083V67.938H39.93V43.083Z" transform="translate(0 -0.003)"/><g transform="translate(46.38 18.983)"><ellipse cx="14.271" cy="14.884" rx="14.271" ry="14.884" fill="#fff" stroke="#d81771" stroke-miterlimit="10" stroke-width="2"/><path d="M6.6,8.149H3.992a1.663,1.663,0,1,1,0-3.325h4.59a1.1,1.1,0,1,0,0-2.2H6.427V1.087a1.138,1.138,0,0,0-2.276,0V2.621H3.99A3.937,3.937,0,0,0,0,6.487a3.937,3.937,0,0,0,3.992,3.868H6.6a1.663,1.663,0,1,1,0,3.325H1.925a1.1,1.1,0,1,0,0,2.2H4.163v1.57a1.138,1.138,0,0,0,2.276,0V15.88h.216a3.948,3.948,0,0,0,3.512-1.915,3.813,3.813,0,0,0-.028-3.949A3.95,3.95,0,0,0,6.6,8.149Z" transform="translate(8.919 5.613)"/></g></g></svg>