<svg xmlns="http://www.w3.org/2000/svg" width="80" height="80" viewBox="0 0 80 80"><rect width="80" height="80" fill="#ffc3c3" opacity="0"/><g transform="translate(6.667 5)"><g transform="translate(0 0)"><path d="M20,29a5.149,5.149,0,0,0,4.893-3.527l.051-.154-1.9-.632-.051.155a3.159,3.159,0,0,1-5.995,0l-.051-.154-1.9.632.051.153A5.148,5.148,0,0,0,20,29Z" transform="translate(0.261 0.918)" fill="#273133"/><path d="M32,52a5.149,5.149,0,0,0,4.893-3.527l.051-.154-1.9-.632-.051.155a3.159,3.159,0,0,1-5.995,0l-.051-.154-1.9.632.051.153A5.148,5.148,0,0,0,32,52Z" transform="translate(1.338 2.78)" fill="#273133"/><path d="M49.044,23.684l-.051.154a3.159,3.159,0,0,1-5.995,0l-.051-.154-1.9.632.051.153a5.157,5.157,0,0,0,9.786,0l.051-.154Z" transform="translate(2.594 0.837)" fill="#273133"/><path d="M65.773,41.92a11.24,11.24,0,0,0-2.408-2.6V18.388A13.1,13.1,0,0,0,50.279,5.3a8.356,8.356,0,0,0-5.631,2.16,9.679,9.679,0,0,0-7.781,4.578,10.934,10.934,0,0,0-2.529-3.954l-1.1-1.1A6.4,6.4,0,0,0,26.86,1H21.248A12.214,12.214,0,0,0,11.026,6.584l-.217.087A8.763,8.763,0,0,0,5.751,17.577l1.727,5.178a4.294,4.294,0,0,0,4.275,4.051h.063a9.686,9.686,0,0,0,4.238,6.966v4l-5.771,1.283A11.853,11.853,0,0,0,1,50.626V67.667H67.667V48.173a11.237,11.237,0,0,0-1.894-6.253Zm-.257,6.253v5.515h-4.3v-4.3H59.065V65.516H51.1a12.654,12.654,0,0,0-10.375-6.427,10.8,10.8,0,0,0,3.256-3.91l.16.16a5.339,5.339,0,0,0,3.8,1.574h5.086l-1.4-4.19a6.443,6.443,0,0,0-4.089-4.083l.1-.288a12.982,12.982,0,0,0,.148-7.78,6.3,6.3,0,0,0,1.6.212,6.223,6.223,0,0,0,4.431-1.835l.258-.258,3.449.431a9.122,9.122,0,0,1,7.99,9.051ZM20.395,43.42c-.015.262-.04.523-.04.789,0,.048.005.1.005.146L16.8,45.781l-1.414-5.657,1.4-.312Zm2.76,7.042h.426a10.724,10.724,0,0,0,.3,2.481L23,53.819a3.247,3.247,0,0,1-2.281.944h-2.1l.454-1.36A4.3,4.3,0,0,1,23.155,50.462Zm.426-3.472v1.322h-.3l-.213-.639A10.951,10.951,0,0,1,33.457,33.258H35.21A10.953,10.953,0,0,1,45.6,47.672l-.214.64h-.3v-.343a5.408,5.408,0,0,0-4.93-5.358l-5.955-.5a2.2,2.2,0,0,1-.513-4.283l.986-.329-.681-2.04-.985.329a4.345,4.345,0,0,0-2.976,4.128c0,.119.005.239.015.356l-1.787.511a6.48,6.48,0,0,0-4.68,6.2Zm7.527-26.635a2.151,2.151,0,1,1,0,4.3Zm-.063,6.452h.063a4.293,4.293,0,0,0,4.269-3.983l.032-.065v8.358c-.067,0-.132-.01-.2-.01H33.457a13.018,13.018,0,0,0-4.644.866,9.628,9.628,0,0,0,2.231-5.167Zm18.343,5.376a7.535,7.535,0,0,1-7.527-7.527V21.149a6.414,6.414,0,0,1,3.2-5.571,7.507,7.507,0,0,0,6.477,3.7h3.226a2.153,2.153,0,0,1,2.151,2.151v3.226A7.535,7.535,0,0,1,49.387,32.183Zm0,2.151A9.621,9.621,0,0,0,51.879,34l.642,3.21-.223.223a4.216,4.216,0,0,1-5.822,0l-.2-.2c-.009-.013-.016-.027-.024-.04l.64-3.2a9.575,9.575,0,0,0,2.491.339Zm-4.3,16.129h.426A4.3,4.3,0,0,1,49.592,53.4l.454,1.36h-2.1a3.247,3.247,0,0,1-2.281-.944l-.876-.876a10.723,10.723,0,0,0,.3-2.481ZM25.731,46.99a4.32,4.32,0,0,1,3.119-4.135l1.905-.544a4.368,4.368,0,0,0,3.266,1.947l5.955.5a3.245,3.245,0,0,1,2.959,3.215v2.494a8.6,8.6,0,0,1-17.2,0ZM40.024,61.215a10.516,10.516,0,0,1,8.5,4.3H20.139a10.516,10.516,0,0,1,8.5-4.3ZM45.086,9.6h.445l.315-.315a6.225,6.225,0,0,1,4.432-1.835A10.949,10.949,0,0,1,61.215,18.388v19.6a11.288,11.288,0,0,0-3.423-1l-3.2-.4L53.913,33.2a9.678,9.678,0,0,0,5.152-8.546V21.43a4.305,4.305,0,0,0-4.3-4.3H51.538a5.376,5.376,0,0,1-5.376-5.376H44.011a7.456,7.456,0,0,0,.226,1.819,8.558,8.558,0,0,0-4.527,7.577v3.506A9.681,9.681,0,0,0,44.861,33.2L44.5,34.987a13.074,13.074,0,0,0-6.945-3.657v-14.2A7.535,7.535,0,0,1,45.086,9.6Zm-13.7,2.319a6.376,6.376,0,0,0,1.465-2.281,8.84,8.84,0,0,1,1.626,10.177l-.014.027A4.277,4.277,0,0,0,31.108,18.2H30.24l-3.094-1.238a2.239,2.239,0,0,1-1.415-2.089,2.049,2.049,0,0,1,3.994-.648l.363,1.089,2.04-.681-.363-1.089a4.213,4.213,0,0,0-.714-1.294ZM11.608,8.668l.881-.353L12.674,8a10.05,10.05,0,0,1,8.574-4.854H26.86a4.247,4.247,0,0,1,3,7.251l-.57.57a4.161,4.161,0,0,0-5.639,3.175l-2.685.767a29.617,29.617,0,0,1-8.142,1.141,1.075,1.075,0,0,1,0-2.151H13.9V11.753H12.828a3.218,3.218,0,0,0-1.075,6.254v.2a4.284,4.284,0,0,0-3.087,1.318L7.79,16.9a6.614,6.614,0,0,1,3.817-8.23ZM9.6,22.505a2.153,2.153,0,0,1,2.151-2.151v4.3A2.153,2.153,0,0,1,9.6,22.505Zm4.3,3.226V18.167a31.774,31.774,0,0,0,7.657-1.186l2.274-.649a4.372,4.372,0,0,0,2.513,2.632l2.61,1.044v5.724a7.527,7.527,0,0,1-15.054,0Zm7.527,9.677a9.62,9.62,0,0,0,2.706-.392A13.089,13.089,0,0,0,20.82,40.8L18.2,38.189V34.844A9.609,9.609,0,0,0,21.43,35.409ZM5.992,43.765a9.686,9.686,0,0,1,4.756-2.611l2.534-.563,2.026,8.1,5.271-2.109a12.99,12.99,0,0,0,.447,1.769l.1.288a6.443,6.443,0,0,0-4.089,4.083l-1.4,4.19h5.086a5.341,5.341,0,0,0,3.8-1.574l.16-.16a10.811,10.811,0,0,0,3.256,3.91,12.653,12.653,0,0,0-10.375,6.427H9.6V50.462H7.452v4.3h-4.3V50.626a9.639,9.639,0,0,1,2.842-6.861ZM3.151,56.914h4.3v8.6h-4.3Zm58.065,8.6V55.839h4.3v9.677Z" transform="translate(-1 -1)" fill="#273133"/></g><g transform="translate(43.333 43.333)"><path d="M17.031,4.756a29.839,29.839,0,0,0,5.494,2.79A29.05,29.05,0,0,0,28.482,8.92s1.2,8.868-1.665,14.494-9.785,8.009-9.785,8.009-6.954-2.383-9.79-8.009S5.686,8.92,5.686,8.92a28.467,28.467,0,0,0,5.864-1.373A30.524,30.524,0,0,0,17.031,4.756Z" transform="translate(-5.397 -4.756)" fill="#fff" stroke="#273133" stroke-linecap="round" stroke-linejoin="round" stroke-width="1"/><g transform="translate(4.733 7.753)"><g transform="translate(0)"><path d="M304.979,310.425a1,1,0,0,0-1.434.014l-8.51,8.84-3.005-3.2a1,1,0,0,0-1.434-.033,1.046,1.046,0,0,0-.032,1.46l3.729,3.974a1,1,0,0,0,1.457.01l9.243-9.6A1.046,1.046,0,0,0,304.979,310.425Z" transform="translate(-290.283 -310.13)" fill="#d81671"/></g></g></g></g></svg>