<svg xmlns="http://www.w3.org/2000/svg" width="48" height="48" viewBox="0 0 48 48">
  <g id="Travel_Icon_1" data-name="Travel Icon 1" transform="translate(-195 -557)">
    <g id="Group_361" data-name="Group 361" transform="translate(0 157)">
      <rect id="Rectangle_40" data-name="Rectangle 40" width="48" height="48" transform="translate(195 400)" fill="#ffc3c3" opacity="0"/>
      <g id="flight" transform="translate(194.234 399.229)">
        <path id="Path_208" data-name="Path 208" d="M41.19,13.346l1.514-.763a1.768,1.768,0,0,0-.8-3.346l-1.3.06a4.429,4.429,0,0,0-3.473-.244,19.94,19.94,0,1,0,4.055,4.293Zm-1.018-2.94a.586.586,0,0,0,.325.079l1.35-.068h.057a.58.58,0,0,1,.529.332.589.589,0,0,1-.265.776l-6.111,3.082.107-1.253a.59.59,0,0,0-.878-.565l-4.7,2.651a.591.591,0,0,0-.28.673l.34,1.226-7.934,4a1.432,1.432,0,0,1-1.6-.2l-2.509-2.218a1.423,1.423,0,0,1,1.317-.034l1.38.662a.589.589,0,0,0,.561-.027L36.93,10.435A3.236,3.236,0,0,1,40.172,10.406Zm-8.6,5.836,3.32-1.872-.6,7.042-1.148.485ZM29.564,13.5,26.85,11.122l.936-.825,4.347,1.65ZM17.813,7.281a8.763,8.763,0,0,0-.137,2.329c.009.118.021.236.034.358a2.72,2.72,0,0,1-.128,1.607,2.761,2.761,0,0,1-1.371.869l-.163.068a6.088,6.088,0,0,0-3.207,2.547,7.615,7.615,0,0,0-.686,2.135c-.074.347-.143.675-.236.992-.111.381-.549,1.637-1.514,1.8-.7.118-1.347-.369-2.1-.934a9.593,9.593,0,0,0-1.2-.8A18.917,18.917,0,0,1,17.813,7.281ZM5.942,24.766a18.754,18.754,0,0,1,.787-5.376c.285.174.571.385.866.607a4.481,4.481,0,0,0,2.592,1.19,2.453,2.453,0,0,0,.416-.034,3.39,3.39,0,0,0,2.45-2.633c.1-.361.183-.725.258-1.078a6.629,6.629,0,0,1,.564-1.811A5,5,0,0,1,16.5,13.606l.158-.065a3.678,3.678,0,0,0,1.935-1.35,3.627,3.627,0,0,0,.294-2.335c-.011-.113-.022-.226-.031-.336a7.609,7.609,0,0,1,.285-2.714A18.825,18.825,0,0,1,35.96,9.642l-2.541,1.533L27.873,9.066a.591.591,0,0,0-.6.109l-1.708,1.506a.591.591,0,0,0,0,.888l2.937,2.57-6.967,4.2-1.09-.523a2.6,2.6,0,0,0-2.727.278l-.4.307a.591.591,0,0,0-.034.912l3.06,2.706a2.611,2.611,0,0,0,2.909.374l7.726-3.9,1.209,4.36a.591.591,0,0,0,.8.386l2.1-.885a.591.591,0,0,0,.359-.494l.5-5.874,4.181-2.108A18.624,18.624,0,0,1,43.382,22a15.918,15.918,0,0,0-4.545.982c-.506.2-1,.436-1.485.665a7.884,7.884,0,0,1-3.678,1.087,7.777,7.777,0,0,1-2.323-.646c-.4-.156-.815-.318-1.242-.449-1.768-.54-3.352-.258-4.237.757a4.832,4.832,0,0,0-.851,3.2l-.051,4.706c-.021,2.086-.164,4.351-1.6,4.83-4.22,1.406-5.491,3-5.771,5.03a18.788,18.788,0,0,1-3.569-1.956,9.168,9.168,0,0,1-.445-.858.591.591,0,0,0-.781-.3.574.574,0,0,0-.15.1,18.784,18.784,0,0,1-6.71-14.391ZM24.763,43.587a18.736,18.736,0,0,1-6.035-1c.079-1.306.566-2.85,5.013-4.332,2.357-.785,2.39-4.011,2.409-5.939l.051-4.706a3.777,3.777,0,0,1,.56-2.437c.671-.77,1.99-.714,3-.405.384.118.761.265,1.159.421a8.774,8.774,0,0,0,2.684.725,8.815,8.815,0,0,0,4.254-1.2c.486-.231.945-.449,1.413-.634a14.854,14.854,0,0,1,4.247-.906q.065.789.068,1.589A18.842,18.842,0,0,1,24.763,43.587Z" transform="translate(0)" fill="#273133"/>
        <path id="Path_209" data-name="Path 209" d="M110.23,44.45a.591.591,0,0,0,1.131-.341,18,18,0,0,0-.722-1.969.591.591,0,0,0-1.084.471,16.672,16.672,0,0,1,.675,1.84Z" transform="translate(-69.38 -24.518)" fill="#d81671"/>
        <path id="Path_210" data-name="Path 210" d="M39.347,58.148a.589.589,0,0,0,.434-.19,11.01,11.01,0,0,1,.8-.786.591.591,0,1,0-.783-.886,12.268,12.268,0,0,0-.885.871.591.591,0,0,0,.434.991Z" transform="translate(-22.515 -34.026)" fill="#d81671"/>
        <path id="Path_211" data-name="Path 211" d="M26.164,81.034a.574.574,0,0,0,.116.012.59.59,0,0,0,.579-.475,16.975,16.975,0,0,1,.641-2.308.591.591,0,1,0-1.114-.393,18.123,18.123,0,0,0-.684,2.47A.59.59,0,0,0,26.164,81.034Z" transform="translate(-13.86 -48.16)" fill="#d81671"/>
        <path id="Path_212" data-name="Path 212" d="M30.856,67.59a.591.591,0,0,0,.793-.263,19.072,19.072,0,0,1,1.212-2.078.591.591,0,1,0-.979-.659A20.186,20.186,0,0,0,30.6,66.8.59.59,0,0,0,30.856,67.59Z" transform="translate(-17.067 -39.437)" fill="#d81671"/>
        <path id="Path_213" data-name="Path 213" d="M26.179,94.8a11.229,11.229,0,0,1-.175-2c0-.116,0-.232.005-.348a.591.591,0,0,0-1.182-.034c0,.126-.005.252-.006.378a12.434,12.434,0,0,0,.194,2.214.591.591,0,0,0,.581.485.571.571,0,0,0,.106-.01.591.591,0,0,0,.476-.685Z" transform="translate(-13.285 -57.678)" fill="#d81671"/>
      </g>
    </g>
    <g id="Group_414" data-name="Group 414" transform="translate(-153)">
      <g id="Group_411" data-name="Group 411" transform="translate(-1.089 -49.254)">
        <path id="Path_270" data-name="Path 270" d="M1715.941,654.758l6.472-2.754,6.421,2.754a15.412,15.412,0,0,1-1.107,7.5,15.2,15.2,0,0,1-5.315,5.354s-4.089-2.141-5.707-5.354S1715.941,654.758,1715.941,654.758Z" transform="translate(-1337.808 -18.779)" fill="#fff"/>
        <g id="verified" transform="translate(376.844 632)">
          <path id="Path_268" data-name="Path 268" d="M54.81,2.926,47.893.054a.706.706,0,0,0-.541,0L40.435,2.926A.706.706,0,0,0,40,3.578V7.069a11.82,11.82,0,0,0,7.356,10.947.706.706,0,0,0,.533,0A11.82,11.82,0,0,0,55.245,7.069V3.578A.706.706,0,0,0,54.81,2.926Zm-.976,4.143A10.41,10.41,0,0,1,47.623,16.6a10.411,10.411,0,0,1-6.211-9.527V4.049L47.623,1.47l6.211,2.579Z" transform="translate(-40 0)" fill="#273133"/>
        </g>
      </g>
      <path id="Path_269" data-name="Path 269" d="M68.729,99.125H67.336a1.589,1.589,0,0,0-1.556,1.617v.753h-.724a1.591,1.591,0,0,0-1.556,1.619v1.451a1.59,1.59,0,0,0,1.556,1.619h.724v.753a1.59,1.59,0,0,0,1.556,1.619h1.392a1.59,1.59,0,0,0,1.556-1.619v-.753h.724a1.59,1.59,0,0,0,1.556-1.619v-1.451a1.591,1.591,0,0,0-1.556-1.619h-.724v-.753A1.589,1.589,0,0,0,68.729,99.125Zm2.28,3.933a.057.057,0,0,1,.054.055v1.451a.056.056,0,0,1-.054.055H69.533a.767.767,0,0,0-.751.782v1.534a.057.057,0,0,1-.054.055H67.336a.056.056,0,0,1-.053-.055V105.4a.767.767,0,0,0-.751-.782H65.056a.056.056,0,0,1-.054-.055v-1.451a.057.057,0,0,1,.054-.055h1.475a.767.767,0,0,0,.751-.782v-1.535a.056.056,0,0,1,.053-.053h1.392a.056.056,0,0,1,.054.053v1.535a.767.767,0,0,0,.751.782Zm0,0" transform="translate(315.435 487.237)" fill="#d81671"/>
    </g>
  </g>
</svg>