<svg xmlns="http://www.w3.org/2000/svg" width="80" height="80" viewBox="0 0 80 80"><rect width="80" height="80" fill="#ffc3c3" opacity="0"/><g transform="translate(3.333 13)"><path d="M6.5,49.056c0,1.466.016,2.855-.016,4.24a1.274,1.274,0,0,1-.343.7c-5.119,6.06-2.587,14.416,4.253,17.532a11.176,11.176,0,0,0,10.894-.566,64.925,64.925,0,0,0,12.64-10.118,3.128,3.128,0,0,0,.263-.386c-1.17-.989-2.3-1.993-3.479-2.938A53.615,53.615,0,0,0,20.863,51a11.064,11.064,0,0,0-8.717-.792c-.167.056-.338.093-.51.133a1.682,1.682,0,0,1-.325-.077c.287-1.171.548-2.357.886-3.518.057-.192.442-.336.7-.4,3.606-.882,6.917.131,10.116,1.745a62.533,62.533,0,0,1,12.877,9.173c.242.214.486.425.746.654,1.638-1.361,3.208-2.724,4.835-4.013a48.967,48.967,0,0,1,11-6.8c7.984-3.426,18.633,1.8,20.6,11.107a14.9,14.9,0,0,1-7.881,16.156,15.362,15.362,0,0,1-10.26,1.531c-.11-.024-.219-.066-.5-.154.93-1.028,1.769-2.006,2.673-2.919.184-.184.611-.138.928-.154a12.332,12.332,0,0,0,8.693-3.831,10.861,10.861,0,0,0-.846-16.129c-4.29-3.526-8.958-4.06-13.916-1.475a63.428,63.428,0,0,0-12.623,9.077,2.515,2.515,0,0,0-.235.357c1.955,1.766,3.86,3.615,5.895,5.29s4.208,3.178,6.393,4.814c-.651.695-1.321,1.489-2.089,2.17a1.1,1.1,0,0,1-1.036-.124c-2.664-2.039-5.326-4.08-7.927-6.206-1.283-1.05-2.432-2.272-3.679-3.453-1.348,1.263-2.645,2.53-4,3.73a57.525,57.525,0,0,1-10.819,7.774C13.893,78.98,3.642,74.05.83,66.1A14.638,14.638,0,0,1,6.5,49.056Z" transform="translate(-0.007 -34.836)" fill="#d81671" stroke="#fff" stroke-width="0.6"/><path d="M60.623,13.853c-.5-1.091-.945-2.1-1.418-3.108a12.964,12.964,0,0,0-24.18,1.621c-1.236,3.956-.616,7.794.9,11.539a35.974,35.974,0,0,0,6.52,10.1c.39.447.777.894,1.311,1.509-1.036.355-1.927.695-2.841.945a.942.942,0,0,1-.742-.326C36.427,31.743,33.214,27.01,31.89,21.2,29.764,11.858,34.151,3.292,43.141.693,49.782-1.226,55.466.866,60,6.243c.207.245.4.5.632.792,5.032-6.2,11.211-8.58,18.718-5.962C84.3,2.8,87.413,6.592,89.408,11.75c-1.379-.5-2.561-.882-3.7-1.368-.272-.117-.421-.561-.613-.865-5.213-8.159-16.5-8.5-21.873-.612a49.277,49.277,0,0,0-2.6,4.947Z" transform="translate(-24.004 0.006)" fill="#273133"/><path d="M90.96,95.54c.834-.45,1.579-.821,2.292-1.249a.817.817,0,0,1,1.1.154c3.79,3.176,7.6,6.318,11.386,9.5a.933.933,0,0,0,1.436,0c5.539-4.485,11.153-8.884,16.132-14.038a36.343,36.343,0,0,0,8.543-12.851c.628-1.747.946-3.613,1.443-5.579.768.5,1.626,1.016,2.413,1.621.171.131.166.61.119.909a27.4,27.4,0,0,1-3.984,10.048,55.755,55.755,0,0,1-11.517,12.956c-4.287,3.7-8.725,7.212-13.076,10.835a1.043,1.043,0,0,1-1.6-.007c-4.552-3.805-9.125-7.579-13.687-11.367C91.642,96.209,91.35,95.908,90.96,95.54Z" transform="translate(-70.132 -54.882)" fill="#273133"/></g></svg>